# xmcd CD database file
#
# Track frame offsets:
#	150
#	9010
#	21187
#	33703
#	42906
#	54579
#	75717
#	84226
#	94933
#	108025
#	124620
#	141932
#	152316
#
# Disc length: 3124 seconds
#
# Revision: 2
# Processed by: cddbd v1.4b41PL1 Copyright (c) Steve Scherf et al.
# Submitted via: Feurio! 1.60 - http://www.feurio.com
#
DISCID=8f0c320d,970c320d
DTITLE=NOFX - S&M Airlines
DYEAR=1900
DGENRE=
TTITLE0=day to daze
TTITLE1=five feet under
TTITLE2=professional crastination
TTITLE3=mean people suck
TTITLE4=vanilla sex
TTITLE5=s&m airlines
TTITLE6=life o'riley
TTITLE7=you drink you drive you spill
TTITLE8=scream for change
TTITLE9=drug free america
TTITLE10=jaundiced eye
TTITLE11=go your own way
TTITLE12=The Decline
EXTD=
EXTT0=
EXTT1=
EXTT2=
EXTT3=
EXTT4=
EXTT5=
EXTT6=
EXTT7=
EXTT8=
EXTT9=
EXTT10=
EXTT11=
EXTT12=
PLAYORDER=
